# xmcd
# Copyright (C) 1995-1998 Ti Kan
#
# Track frame offsets:
#       150
#       8375
#       18126
#       27274
#       37676
#       46851
#       57022
#       65794
#       73394
#       82526
#       93698
#       102922
#       114364
#       125439
#       135864
#       144385
#       157379
#       166993
#       178041
#       190414
#       201689
#       212829
#
# Disc length: 2971 seconds
#
# Revision: 0
# Processed by: cddbd v1.5.2PL0 Copyright (c) Steve Scherf et al.
# Submitted via: CD-Import v1.0
#
DISCID=2b0b9916
DTITLE=Otis Blackwell - When You're Around
DYEAR=1900
DGENRE=
TTITLE0=All Shook Up
TTITLE1=Clinging To A Dream
TTITLE2=Don't Run Away
TTITLE3=When You're Around
TTITLE4=Teddy Bear
TTITLE5=Handle With Care
TTITLE6=Kiss Away
TTITLE7=Paralyzed
TTITLE8=Jeannie's Wedding
TTITLE9=Grandaddy Of Them All
TTITLE10=One Broken Heart For Sale
TTITLE11=Sleep Is Just Around The Corner
TTITLE12=I'd Rather Kiss You Than Eat
TTITLE13=Make Ready For Love
TTITLE14=Music And Fire
TTITLE15=Heartbreak Hill
TTITLE16=What A Coincidence
TTITLE17=It's Love, It's Real
TTITLE18=Don't Take My Word
TTITLE19=Turtle Dove
TTITLE20=Ga Ga
TTITLE21=Sister Twister
EXTD=
EXTT0=
EXTT1=
EXTT2=
EXTT3=
EXTT4=
EXTT5=
EXTT6=
EXTT7=
EXTT8=
EXTT9=
EXTT10=
EXTT11=
EXTT12=
EXTT13=
EXTT14=
EXTT15=
EXTT16=
EXTT17=
EXTT18=
EXTT19=
EXTT20=
EXTT21=
PLAYORDER=
